<svg xmlns="http://www.w3.org/2000/svg" xmlns:xlink="http://www.w3.org/1999/xlink" width="500" zoomAndPan="magnify" viewBox="0 0 375 374.999991" height="500" preserveAspectRatio="xMidYMid meet" version="1.0"><defs><clipPath id="6f7ba0c3be"><path d="M 24.941406 32.664062 L 348 32.664062 L 348 342 L 24.941406 342 Z M 24.941406 32.664062 " clip-rule="nonzero"/></clipPath><clipPath id="850d378315"><path d="M 132.671875 64.964844 L 210.800781 64.964844 C 217.796875 65.09375 217.730469 75.472656 210.800781 75.539062 L 132.671875 75.539062 C 125.675781 75.410156 125.742188 65.09375 132.671875 64.964844 Z M 347.292969 230.773438 C 346.777344 234.730469 342.890625 236.222656 339.390625 235.054688 C 340.816406 251.273438 337.253906 268.011719 329.21875 282.152344 C 326.695312 286.695312 320.929688 283.96875 317.042969 283.449219 C 316.976562 285.136719 316.78125 286.824219 316.457031 288.445312 C 346.0625 297.65625 339.84375 341.1875 308.621094 341.640625 C 240.210938 342.09375 107.277344 340.535156 39.386719 340.859375 C 31.417969 340.859375 24.941406 334.375 24.941406 326.394531 L 24.941406 174.078125 C 24.941406 166.097656 31.417969 159.609375 39.386719 159.609375 L 56.425781 159.546875 L 56.425781 74.757812 C 56.425781 73.332031 57.007812 72.035156 57.980469 70.996094 C 61.414062 67.558594 91.925781 37.132812 94.386719 34.539062 C 95.425781 33.566406 96.65625 32.984375 98.144531 32.984375 L 234.640625 32.984375 C 239.367188 32.984375 243.253906 36.875 243.253906 41.609375 L 243.253906 182.054688 C 248.179688 182.316406 258.027344 181.019531 262.300781 184.066406 C 269.6875 181.277344 277.785156 181.148438 285.492188 182.964844 C 285.492188 182.964844 306.09375 73.980469 306.09375 73.980469 C 309.980469 55.945312 336.996094 60.941406 334.015625 79.300781 C 334.015625 79.300781 313.414062 188.285156 313.414062 188.285156 C 334.207031 190.8125 349.691406 209.820312 347.292969 230.773438 Z M 295.792969 184.976562 L 302.984375 186.339844 C 302.984375 186.339844 323.519531 77.355469 323.519531 77.355469 C 324.425781 73.007812 317.105469 71.644531 316.328125 75.992188 Z M 74.433594 69.503906 L 92.769531 69.503906 L 92.769531 51.082031 Z M 66.984375 159.546875 L 94.839844 159.417969 C 99.117188 159.417969 103.132812 161.234375 105.855469 164.410156 L 119.910156 180.695312 C 120.300781 181.148438 120.753906 181.472656 121.207031 181.730469 C 121.726562 181.992188 122.242188 182.054688 122.828125 182.054688 L 232.632812 182.054688 L 232.632812 43.554688 L 103.390625 43.554688 L 103.390625 71.449219 C 103.390625 76.1875 99.503906 80.078125 94.777344 80.078125 L 66.984375 80.078125 Z M 156.058594 289.222656 C 145.304688 260.746094 176.140625 233.371094 203.15625 247.316406 C 211.773438 233.046875 229.390625 225.519531 245.847656 229.152344 C 246.042969 225.195312 245.976562 221.238281 245.652344 217.28125 C 237.683594 216.566406 236.84375 212.15625 239.953125 205.605469 C 241.960938 200.738281 244.941406 196.394531 248.632812 192.695312 L 122.957031 192.695312 C 120.234375 192.695312 117.707031 191.851562 115.441406 190.488281 C 112.65625 189.386719 100.21875 173.6875 97.949219 171.417969 C 97.171875 170.574219 96.136719 170.054688 94.96875 170.054688 C 94.710938 170.054688 61.800781 170.183594 61.542969 170.183594 L 39.515625 170.25 C 37.378906 170.25 35.628906 172 35.628906 174.140625 L 35.628906 326.460938 C 35.628906 328.601562 37.378906 330.351562 39.515625 330.351562 L 144.074219 330.351562 C 133.582031 316.535156 140.125 294.804688 156.058594 289.222656 Z M 309.460938 297.980469 C 305.964844 297.917969 303.4375 293.960938 304.796875 290.714844 C 305.964844 287.667969 306.546875 284.617188 306.480469 281.4375 C 292.488281 278.78125 278.433594 276.121094 264.375 273.460938 C 263.402344 277.9375 264.179688 281.699219 264.699219 283.320312 C 265.734375 286.628906 263.078125 290.132812 259.644531 290.132812 C 252.90625 290.003906 252.777344 279.6875 254.074219 271.515625 C 254.074219 271.515625 240.664062 268.984375 240.664062 268.984375 C 237.230469 268.464844 235.289062 264.3125 236.972656 261.328125 C 240.535156 254.582031 243.0625 247.253906 244.550781 239.726562 C 230.039062 235.835938 215.011719 244.203125 209.503906 257.957031 C 207.820312 260.292969 204.320312 260.875 202.054688 259.058594 C 182.8125 244.460938 156.578125 265.546875 166.878906 287.40625 C 171.347656 287.601562 178.410156 288.898438 184.5 294.609375 C 191.367188 301.09375 197.519531 315.757812 187.542969 316.597656 C 184.953125 316.597656 182.683594 314.71875 182.296875 312.058594 C 178.667969 291.753906 149.90625 294.21875 149.515625 314.457031 C 149.324219 323.347656 157.160156 331.261719 166.035156 331.066406 C 166.035156 331.066406 308.683594 331.066406 308.683594 331.066406 C 329.933594 330.546875 330.90625 299.601562 309.460938 297.980469 Z M 328.636719 233.046875 L 256.339844 219.359375 C 257.117188 233.175781 254.785156 247.253906 249.34375 259.902344 C 253.75 260.746094 264.179688 262.691406 268.519531 263.535156 C 273.445312 254.519531 275.710938 244.074219 274.933594 233.757812 C 274.738281 230.839844 276.941406 228.308594 279.855469 228.113281 C 291.90625 227.207031 282.773438 259.835938 279.339844 265.546875 C 285.429688 266.714844 291.582031 267.882812 297.671875 268.984375 C 302.140625 259.640625 304.410156 249.394531 304.214844 239.011719 C 304.148438 236.09375 306.480469 233.695312 309.398438 233.628906 C 312.183594 233.5625 314.710938 235.898438 314.773438 238.820312 C 314.96875 249.910156 312.765625 260.875 308.296875 270.996094 C 312.765625 271.839844 317.300781 272.746094 321.769531 273.523438 C 327.988281 261.199219 330.386719 246.863281 328.636719 233.046875 Z M 336.800781 223.832031 C 335.570312 211.832031 326.566406 201.582031 314.320312 199.3125 L 280.503906 192.890625 C 268.78125 190.425781 255.886719 196.78125 250.640625 207.484375 C 251.03125 207.550781 252 207.746094 252.390625 207.808594 L 335.179688 223.445312 C 335.441406 223.574219 335.632812 223.574219 336.410156 223.703125 C 336.605469 223.769531 336.800781 223.832031 336.800781 223.832031 Z M 88.816406 108.945312 L 210.734375 108.945312 C 217.667969 108.816406 217.730469 98.503906 210.734375 98.371094 L 88.816406 98.371094 C 81.882812 98.4375 81.820312 108.816406 88.816406 108.945312 Z M 216.046875 137.035156 C 216.046875 134.117188 213.648438 131.714844 210.734375 131.714844 L 88.816406 131.714844 C 85.902344 131.714844 83.503906 134.117188 83.503906 137.035156 C 83.503906 139.957031 85.902344 142.355469 88.816406 142.355469 L 210.734375 142.355469 C 213.714844 142.355469 216.046875 139.957031 216.046875 137.035156 Z M 279.664062 300.25 C 276.617188 299.667969 270.59375 299.214844 264.179688 302.328125 C 255.238281 306.804688 246.753906 318.609375 254.722656 322.371094 C 262.820312 324.707031 260.550781 315.433594 268.78125 311.863281 C 272.472656 310.046875 275.96875 310.371094 277.71875 310.695312 C 284.585938 311.863281 286.464844 301.679688 279.664062 300.25 Z M 219.027344 275.472656 C 210.605469 273.007812 203.414062 274.757812 199.851562 276.054688 C 193.375 278.519531 196.871094 288.25 203.480469 286.046875 C 205.8125 285.203125 210.539062 284.035156 216.046875 285.65625 C 221.554688 287.277344 224.921875 290.84375 226.414062 292.792969 C 230.753906 298.242188 238.914062 291.949219 234.832031 286.371094 C 232.566406 283.386719 227.449219 277.9375 219.027344 275.472656 Z M 132.21875 287.019531 L 132.21875 301.808594 C 132.21875 307.257812 127.816406 311.667969 122.375 311.667969 L 63.355469 311.667969 C 57.980469 311.667969 53.574219 307.191406 53.511719 301.875 L 53.511719 287.019531 C 53.511719 281.761719 57.851562 277.222656 63.355469 277.222656 L 122.4375 277.222656 C 127.816406 277.289062 132.21875 281.632812 132.21875 287.019531 Z M 121.660156 287.863281 L 64.132812 287.863281 L 64.132812 301.09375 L 121.660156 301.09375 Z M 121.660156 287.863281 " clip-rule="nonzero"/></clipPath><linearGradient x1="28.948951" gradientTransform="matrix(0.647816, 0, 0, 0.648712, 20.406983, 21.305729)" y1="516.449011" x2="517.849527" gradientUnits="userSpaceOnUse" y2="27.549562" id="8ba745d269"><stop stop-opacity="1" stop-color="rgb(55.699158%, 25.099182%, 95.698547%)" offset="0"/><stop stop-opacity="1" stop-color="rgb(55.691528%, 25.108337%, 95.698547%)" offset="0.015625"/><stop stop-opacity="1" stop-color="rgb(55.508423%, 25.325012%, 95.698547%)" offset="0.0195312"/><stop stop-opacity="1" stop-color="rgb(55.334473%, 25.532532%, 95.698547%)" offset="0.0234375"/><stop stop-opacity="1" stop-color="rgb(55.158997%, 25.740051%, 95.698547%)" offset="0.0273437"/><stop stop-opacity="1" stop-color="rgb(54.985046%, 25.949097%, 95.698547%)" offset="0.03125"/><stop stop-opacity="1" stop-color="rgb(54.80957%, 26.156616%, 95.698547%)" offset="0.0351562"/><stop stop-opacity="1" stop-color="rgb(54.63562%, 26.365662%, 95.698547%)" offset="0.0390625"/><stop stop-opacity="1" stop-color="rgb(54.460144%, 26.573181%, 95.698547%)" offset="0.0429688"/><stop stop-opacity="1" stop-color="rgb(54.286194%, 26.780701%, 95.698547%)" offset="0.046875"/><stop stop-opacity="1" stop-color="rgb(54.110718%, 26.98822%, 95.698547%)" offset="0.0507812"/><stop stop-opacity="1" stop-color="rgb(53.935242%, 27.197266%, 95.698547%)" offset="0.0546875"/><stop stop-opacity="1" stop-color="rgb(53.759766%, 27.404785%, 95.698547%)" offset="0.0585938"/><stop stop-opacity="1" stop-color="rgb(53.585815%, 27.613831%, 95.698547%)" offset="0.0625"/><stop stop-opacity="1" stop-color="rgb(53.410339%, 27.82135%, 95.698547%)" offset="0.0664062"/><stop stop-opacity="1" stop-color="rgb(53.236389%, 28.030396%, 95.698547%)" offset="0.0703125"/><stop stop-opacity="1" stop-color="rgb(53.060913%, 28.237915%, 95.698547%)" offset="0.0742188"/><stop stop-opacity="1" stop-color="rgb(52.886963%, 28.445435%, 95.698547%)" offset="0.078125"/><stop stop-opacity="1" stop-color="rgb(52.711487%, 28.652954%, 95.698547%)" offset="0.0820312"/><stop stop-opacity="1" stop-color="rgb(52.537537%, 28.862%, 95.698547%)" offset="0.0859375"/><stop stop-opacity="1" stop-color="rgb(52.362061%, 29.069519%, 95.698547%)" offset="0.0898438"/><stop stop-opacity="1" stop-color="rgb(52.186584%, 29.278564%, 95.698547%)" offset="0.09375"/><stop stop-opacity="1" stop-color="rgb(52.011108%, 29.486084%, 95.698547%)" offset="0.0976562"/><stop stop-opacity="1" stop-color="rgb(51.837158%, 29.693604%, 95.698547%)" offset="0.101562"/><stop stop-opacity="1" stop-color="rgb(51.661682%, 29.901123%, 95.698547%)" offset="0.105469"/><stop stop-opacity="1" stop-color="rgb(51.487732%, 30.110168%, 95.698547%)" offset="0.109375"/><stop stop-opacity="1" stop-color="rgb(51.312256%, 30.317688%, 95.698547%)" offset="0.113281"/><stop stop-opacity="1" stop-color="rgb(51.138306%, 30.526733%, 95.698547%)" offset="0.117188"/><stop stop-opacity="1" stop-color="rgb(50.96283%, 30.734253%, 95.698547%)" offset="0.121094"/><stop stop-opacity="1" stop-color="rgb(50.788879%, 30.943298%, 95.698547%)" offset="0.125"/><stop stop-opacity="1" stop-color="rgb(50.613403%, 31.150818%, 95.698547%)" offset="0.128906"/><stop stop-opacity="1" stop-color="rgb(50.437927%, 31.358337%, 95.698547%)" offset="0.132812"/><stop stop-opacity="1" stop-color="rgb(50.262451%, 31.565857%, 95.698547%)" offset="0.136719"/><stop stop-opacity="1" stop-color="rgb(50.088501%, 31.774902%, 95.698547%)" offset="0.140625"/><stop stop-opacity="1" stop-color="rgb(49.913025%, 31.982422%, 95.698547%)" offset="0.144531"/><stop stop-opacity="1" stop-color="rgb(49.739075%, 32.191467%, 95.698547%)" offset="0.148438"/><stop stop-opacity="1" stop-color="rgb(49.563599%, 32.398987%, 95.698547%)" offset="0.152344"/><stop stop-opacity="1" stop-color="rgb(49.389648%, 32.606506%, 95.698547%)" offset="0.15625"/><stop stop-opacity="1" stop-color="rgb(49.214172%, 32.814026%, 95.698547%)" offset="0.160156"/><stop stop-opacity="1" stop-color="rgb(49.040222%, 33.023071%, 95.698547%)" offset="0.164062"/><stop stop-opacity="1" stop-color="rgb(48.864746%, 33.230591%, 95.698547%)" offset="0.167969"/><stop stop-opacity="1" stop-color="rgb(48.68927%, 33.439636%, 95.698547%)" offset="0.171875"/><stop stop-opacity="1" stop-color="rgb(48.513794%, 33.647156%, 95.698547%)" offset="0.175781"/><stop stop-opacity="1" stop-color="rgb(48.339844%, 33.856201%, 95.698547%)" offset="0.179688"/><stop stop-opacity="1" stop-color="rgb(48.164368%, 34.063721%, 95.698547%)" offset="0.183594"/><stop stop-opacity="1" stop-color="rgb(47.990417%, 34.27124%, 95.698547%)" offset="0.1875"/><stop stop-opacity="1" stop-color="rgb(47.799683%, 34.500122%, 95.698547%)" offset="0.191406"/><stop stop-opacity="1" stop-color="rgb(47.608948%, 34.73053%, 95.698547%)" offset="0.195312"/><stop stop-opacity="1" stop-color="rgb(47.398376%, 34.986877%, 95.698547%)" offset="0.199219"/><stop stop-opacity="1" stop-color="rgb(47.187805%, 35.243225%, 95.698547%)" offset="0.203125"/><stop stop-opacity="1" stop-color="rgb(46.975708%, 35.498047%, 95.698547%)" offset="0.207031"/><stop stop-opacity="1" stop-color="rgb(46.765137%, 35.754395%, 95.698547%)" offset="0.210938"/><stop stop-opacity="1" stop-color="rgb(46.554565%, 36.010742%, 95.698547%)" offset="0.214844"/><stop stop-opacity="1" stop-color="rgb(46.343994%, 36.26709%, 95.698547%)" offset="0.21875"/><stop stop-opacity="1" stop-color="rgb(46.133423%, 36.521912%, 95.698547%)" offset="0.222656"/><stop stop-opacity="1" stop-color="rgb(45.922852%, 36.778259%, 95.698547%)" offset="0.226562"/><stop stop-opacity="1" stop-color="rgb(45.71228%, 37.033081%, 95.698547%)" offset="0.230469"/><stop stop-opacity="1" stop-color="rgb(45.501709%, 37.289429%, 95.698547%)" offset="0.234375"/><stop stop-opacity="1" stop-color="rgb(45.291138%, 37.545776%, 95.698547%)" offset="0.238281"/><stop stop-opacity="1" stop-color="rgb(45.080566%, 37.802124%, 95.698547%)" offset="0.242187"/><stop stop-opacity="1" stop-color="rgb(44.869995%, 38.056946%, 95.698547%)" offset="0.246094"/><stop stop-opacity="1" stop-color="rgb(44.659424%, 38.313293%, 95.698547%)" offset="0.25"/><stop stop-opacity="1" stop-color="rgb(44.448853%, 38.569641%, 95.698547%)" offset="0.253906"/><stop stop-opacity="1" stop-color="rgb(44.238281%, 38.825989%, 95.698547%)" offset="0.257812"/><stop stop-opacity="1" stop-color="rgb(44.02771%, 39.080811%, 95.698547%)" offset="0.261719"/><stop stop-opacity="1" stop-color="rgb(43.817139%, 39.337158%, 95.698547%)" offset="0.265625"/><stop stop-opacity="1" stop-color="rgb(43.606567%, 39.59198%, 95.698547%)" offset="0.269531"/><stop stop-opacity="1" stop-color="rgb(43.395996%, 39.848328%, 95.698547%)" offset="0.273438"/><stop stop-opacity="1" stop-color="rgb(43.185425%, 40.104675%, 95.698547%)" offset="0.277344"/><stop stop-opacity="1" stop-color="rgb(42.974854%, 40.361023%, 95.698547%)" offset="0.28125"/><stop stop-opacity="1" stop-color="rgb(42.764282%, 40.615845%, 95.698547%)" offset="0.285156"/><stop stop-opacity="1" stop-color="rgb(42.553711%, 40.872192%, 95.698547%)" offset="0.289062"/><stop stop-opacity="1" stop-color="rgb(42.34314%, 41.12854%, 95.698547%)" offset="0.292969"/><stop stop-opacity="1" stop-color="rgb(42.132568%, 41.384888%, 95.698547%)" offset="0.296875"/><stop stop-opacity="1" stop-color="rgb(41.921997%, 41.639709%, 95.698547%)" offset="0.300781"/><stop stop-opacity="1" stop-color="rgb(41.711426%, 41.896057%, 95.698547%)" offset="0.304688"/><stop stop-opacity="1" stop-color="rgb(41.500854%, 42.150879%, 95.698547%)" offset="0.308594"/><stop stop-opacity="1" stop-color="rgb(41.290283%, 42.407227%, 95.698547%)" offset="0.3125"/><stop stop-opacity="1" stop-color="rgb(41.079712%, 42.663574%, 95.698547%)" offset="0.316406"/><stop stop-opacity="1" stop-color="rgb(40.869141%, 42.919922%, 95.698547%)" offset="0.320312"/><stop stop-opacity="1" stop-color="rgb(40.658569%, 43.174744%, 95.698547%)" offset="0.324219"/><stop stop-opacity="1" stop-color="rgb(40.447998%, 43.431091%, 95.698547%)" offset="0.328125"/><stop stop-opacity="1" stop-color="rgb(40.237427%, 43.685913%, 95.698547%)" offset="0.332031"/><stop stop-opacity="1" stop-color="rgb(40.026855%, 43.942261%, 95.698547%)" offset="0.335938"/><stop stop-opacity="1" stop-color="rgb(39.816284%, 44.198608%, 95.698547%)" offset="0.339844"/><stop stop-opacity="1" stop-color="rgb(39.605713%, 44.454956%, 95.698547%)" offset="0.34375"/><stop stop-opacity="1" stop-color="rgb(39.395142%, 44.709778%, 95.698547%)" offset="0.347656"/><stop stop-opacity="1" stop-color="rgb(39.18457%, 44.966125%, 95.698547%)" offset="0.351562"/><stop stop-opacity="1" stop-color="rgb(38.973999%, 45.222473%, 95.698547%)" offset="0.355469"/><stop stop-opacity="1" stop-color="rgb(38.763428%, 45.478821%, 95.698547%)" offset="0.359375"/><stop stop-opacity="1" stop-color="rgb(38.552856%, 45.733643%, 95.698547%)" offset="0.363281"/><stop stop-opacity="1" stop-color="rgb(38.342285%, 45.98999%, 95.698547%)" offset="0.367188"/><stop stop-opacity="1" stop-color="rgb(38.131714%, 46.244812%, 95.698547%)" offset="0.371094"/><stop stop-opacity="1" stop-color="rgb(37.921143%, 46.50116%, 95.698547%)" offset="0.375"/><stop stop-opacity="1" stop-color="rgb(37.710571%, 46.757507%, 95.698547%)" offset="0.378906"/><stop stop-opacity="1" stop-color="rgb(37.5%, 47.013855%, 95.698547%)" offset="0.382812"/><stop stop-opacity="1" stop-color="rgb(37.289429%, 47.268677%, 95.698547%)" offset="0.386719"/><stop stop-opacity="1" stop-color="rgb(37.078857%, 47.525024%, 95.698547%)" offset="0.390625"/><stop stop-opacity="1" stop-color="rgb(36.868286%, 47.781372%, 95.698547%)" offset="0.394531"/><stop stop-opacity="1" stop-color="rgb(36.657715%, 48.03772%, 95.698547%)" offset="0.398438"/><stop stop-opacity="1" stop-color="rgb(36.445618%, 48.292542%, 95.698547%)" offset="0.402344"/><stop stop-opacity="1" stop-color="rgb(36.235046%, 48.548889%, 95.698547%)" offset="0.40625"/><stop stop-opacity="1" stop-color="rgb(36.024475%, 48.803711%, 95.698547%)" offset="0.410156"/><stop stop-opacity="1" stop-color="rgb(35.813904%, 49.060059%, 95.698547%)" offset="0.414062"/><stop stop-opacity="1" stop-color="rgb(35.603333%, 49.316406%, 95.698547%)" offset="0.417969"/><stop stop-opacity="1" stop-color="rgb(35.392761%, 49.572754%, 95.698547%)" offset="0.421875"/><stop stop-opacity="1" stop-color="rgb(35.18219%, 49.827576%, 95.698547%)" offset="0.425781"/><stop stop-opacity="1" stop-color="rgb(34.971619%, 50.083923%, 95.698547%)" offset="0.429688"/><stop stop-opacity="1" stop-color="rgb(34.761047%, 50.340271%, 95.698547%)" offset="0.433594"/><stop stop-opacity="1" stop-color="rgb(34.550476%, 50.596619%, 95.698547%)" offset="0.4375"/><stop stop-opacity="1" stop-color="rgb(34.339905%, 50.85144%, 95.698547%)" offset="0.441406"/><stop stop-opacity="1" stop-color="rgb(34.129333%, 51.107788%, 95.698547%)" offset="0.445312"/><stop stop-opacity="1" stop-color="rgb(33.918762%, 51.36261%, 95.698547%)" offset="0.449219"/><stop stop-opacity="1" stop-color="rgb(33.708191%, 51.618958%, 95.698547%)" offset="0.453125"/><stop stop-opacity="1" stop-color="rgb(33.49762%, 51.875305%, 95.698547%)" offset="0.457031"/><stop stop-opacity="1" stop-color="rgb(33.287048%, 52.131653%, 95.698547%)" offset="0.460938"/><stop stop-opacity="1" stop-color="rgb(33.076477%, 52.386475%, 95.698547%)" offset="0.464844"/><stop stop-opacity="1" stop-color="rgb(32.865906%, 52.642822%, 95.698547%)" offset="0.46875"/><stop stop-opacity="1" stop-color="rgb(32.655334%, 52.897644%, 95.698547%)" offset="0.472656"/><stop stop-opacity="1" stop-color="rgb(32.444763%, 53.153992%, 95.698547%)" offset="0.476562"/><stop stop-opacity="1" stop-color="rgb(32.234192%, 53.410339%, 95.698547%)" offset="0.480469"/><stop stop-opacity="1" stop-color="rgb(32.023621%, 53.666687%, 95.698547%)" offset="0.484375"/><stop stop-opacity="1" stop-color="rgb(31.813049%, 53.921509%, 95.698547%)" offset="0.488281"/><stop stop-opacity="1" stop-color="rgb(31.602478%, 54.177856%, 95.698547%)" offset="0.492188"/><stop stop-opacity="1" stop-color="rgb(31.391907%, 54.434204%, 95.698547%)" offset="0.496094"/><stop stop-opacity="1" stop-color="rgb(31.181335%, 54.690552%, 95.698547%)" offset="0.5"/><stop stop-opacity="1" stop-color="rgb(30.970764%, 54.945374%, 95.698547%)" offset="0.503906"/><stop stop-opacity="1" stop-color="rgb(30.760193%, 55.201721%, 95.698547%)" offset="0.507812"/><stop stop-opacity="1" stop-color="rgb(30.549622%, 55.456543%, 95.698547%)" offset="0.511719"/><stop stop-opacity="1" stop-color="rgb(30.33905%, 55.712891%, 95.698547%)" offset="0.515625"/><stop stop-opacity="1" stop-color="rgb(30.128479%, 55.969238%, 95.698547%)" offset="0.519531"/><stop stop-opacity="1" stop-color="rgb(29.917908%, 56.225586%, 95.698547%)" offset="0.523438"/><stop stop-opacity="1" stop-color="rgb(29.707336%, 56.480408%, 95.698547%)" offset="0.527344"/><stop stop-opacity="1" stop-color="rgb(29.496765%, 56.736755%, 95.698547%)" offset="0.53125"/><stop stop-opacity="1" stop-color="rgb(29.286194%, 56.993103%, 95.698547%)" offset="0.535156"/><stop stop-opacity="1" stop-color="rgb(29.075623%, 57.249451%, 95.698547%)" offset="0.539062"/><stop stop-opacity="1" stop-color="rgb(28.865051%, 57.504272%, 95.698547%)" offset="0.542969"/><stop stop-opacity="1" stop-color="rgb(28.65448%, 57.76062%, 95.698547%)" offset="0.546875"/><stop stop-opacity="1" stop-color="rgb(28.443909%, 58.015442%, 95.698547%)" offset="0.550781"/><stop stop-opacity="1" stop-color="rgb(28.233337%, 58.27179%, 95.698547%)" offset="0.554688"/><stop stop-opacity="1" stop-color="rgb(28.022766%, 58.528137%, 95.698547%)" offset="0.558594"/><stop stop-opacity="1" stop-color="rgb(27.812195%, 58.784485%, 95.698547%)" offset="0.5625"/><stop stop-opacity="1" stop-color="rgb(27.586365%, 59.057617%, 95.698547%)" offset="0.566406"/><stop stop-opacity="1" stop-color="rgb(27.360535%, 59.332275%, 95.698547%)" offset="0.570312"/><stop stop-opacity="1" stop-color="rgb(27.134705%, 59.606934%, 95.698547%)" offset="0.574219"/><stop stop-opacity="1" stop-color="rgb(26.908875%, 59.883118%, 95.698547%)" offset="0.578125"/><stop stop-opacity="1" stop-color="rgb(26.681519%, 60.157776%, 95.698547%)" offset="0.582031"/><stop stop-opacity="1" stop-color="rgb(26.455688%, 60.432434%, 95.698547%)" offset="0.585938"/><stop stop-opacity="1" stop-color="rgb(26.229858%, 60.707092%, 95.698547%)" offset="0.589844"/><stop stop-opacity="1" stop-color="rgb(26.004028%, 60.983276%, 95.698547%)" offset="0.59375"/><stop stop-opacity="1" stop-color="rgb(25.778198%, 61.257935%, 95.698547%)" offset="0.597656"/><stop stop-opacity="1" stop-color="rgb(25.552368%, 61.532593%, 95.698547%)" offset="0.601562"/><stop stop-opacity="1" stop-color="rgb(25.325012%, 61.807251%, 95.698547%)" offset="0.605469"/><stop stop-opacity="1" stop-color="rgb(25.099182%, 62.081909%, 95.698547%)" offset="0.609375"/><stop stop-opacity="1" stop-color="rgb(24.873352%, 62.356567%, 95.698547%)" offset="0.613281"/><stop stop-opacity="1" stop-color="rgb(24.647522%, 62.632751%, 95.698547%)" offset="0.617188"/><stop stop-opacity="1" stop-color="rgb(24.421692%, 62.90741%, 95.698547%)" offset="0.621094"/><stop stop-opacity="1" stop-color="rgb(24.195862%, 63.182068%, 95.698547%)" offset="0.625"/><stop stop-opacity="1" stop-color="rgb(23.968506%, 63.456726%, 95.698547%)" offset="0.628906"/><stop stop-opacity="1" stop-color="rgb(23.742676%, 63.73291%, 95.698547%)" offset="0.632812"/><stop stop-opacity="1" stop-color="rgb(23.516846%, 64.007568%, 95.698547%)" offset="0.636719"/><stop stop-opacity="1" stop-color="rgb(23.291016%, 64.282227%, 95.698547%)" offset="0.640625"/><stop stop-opacity="1" stop-color="rgb(23.065186%, 64.556885%, 95.698547%)" offset="0.644531"/><stop stop-opacity="1" stop-color="rgb(22.839355%, 64.831543%, 95.698547%)" offset="0.648438"/><stop stop-opacity="1" stop-color="rgb(22.612%, 65.106201%, 95.698547%)" offset="0.652344"/><stop stop-opacity="1" stop-color="rgb(22.386169%, 65.382385%, 95.698547%)" offset="0.65625"/><stop stop-opacity="1" stop-color="rgb(22.160339%, 65.657043%, 95.698547%)" offset="0.660156"/><stop stop-opacity="1" stop-color="rgb(21.934509%, 65.931702%, 95.698547%)" offset="0.664062"/><stop stop-opacity="1" stop-color="rgb(21.708679%, 66.20636%, 95.698547%)" offset="0.667969"/><stop stop-opacity="1" stop-color="rgb(21.482849%, 66.482544%, 95.698547%)" offset="0.671875"/><stop stop-opacity="1" stop-color="rgb(21.255493%, 66.757202%, 95.698547%)" offset="0.675781"/><stop stop-opacity="1" stop-color="rgb(21.029663%, 67.03186%, 95.698547%)" offset="0.679688"/><stop stop-opacity="1" stop-color="rgb(20.803833%, 67.306519%, 95.698547%)" offset="0.683594"/><stop stop-opacity="1" stop-color="rgb(20.578003%, 67.581177%, 95.698547%)" offset="0.6875"/><stop stop-opacity="1" stop-color="rgb(20.487976%, 67.689514%, 95.698547%)" offset="0.75"/><stop stop-opacity="1" stop-color="rgb(20.399475%, 67.799377%, 95.698547%)" offset="1"/></linearGradient></defs><g clip-path="url(#6f7ba0c3be)"><g clip-path="url(#850d378315)"><path fill="url(#8ba745d269)" d="M 24.941406 32.984375 L 24.941406 342.09375 L 349.691406 342.09375 L 349.691406 32.984375 Z M 24.941406 32.984375 " fill-rule="nonzero"/></g></g></svg>