<svg xmlns="http://www.w3.org/2000/svg" xmlns:xlink="http://www.w3.org/1999/xlink" width="500" zoomAndPan="magnify" viewBox="0 0 375 374.999991" height="500" preserveAspectRatio="xMidYMid meet" version="1.0"><defs><clipPath id="0b28d975a7"><path d="M 20.089844 47.921875 L 354.589844 47.921875 L 354.589844 326.921875 L 20.089844 326.921875 Z M 20.089844 47.921875 " clip-rule="nonzero"/></clipPath><clipPath id="733a76f61f"><path d="M 20.089844 47.921875 L 354.589844 47.921875 L 354.589844 93 L 20.089844 93 Z M 20.089844 47.921875 " clip-rule="nonzero"/></clipPath></defs><g clip-path="url(#0b28d975a7)"><path fill="#e6e9ed" d="M 20.089844 47.992188 L 354.589844 47.992188 L 354.589844 326.855469 L 20.089844 326.855469 Z M 20.089844 47.992188 " fill-opacity="1" fill-rule="nonzero"/></g><g clip-path="url(#733a76f61f)"><path fill="#fcd770" d="M 20.089844 47.992188 L 354.589844 47.992188 L 354.589844 92.609375 L 20.089844 92.609375 Z M 20.089844 47.992188 " fill-opacity="1" fill-rule="nonzero"/></g><path fill="#656d78" d="M 36.816406 64.722656 L 47.964844 64.722656 L 47.964844 75.878906 L 36.816406 75.878906 Z M 36.816406 64.722656 " fill-opacity="1" fill-rule="nonzero"/><path fill="#656d78" d="M 59.117188 64.722656 L 70.265625 64.722656 L 70.265625 75.878906 L 59.117188 75.878906 Z M 59.117188 64.722656 " fill-opacity="1" fill-rule="nonzero"/><path fill="#ccd1d9" d="M 220.792969 204.15625 L 220.792969 103.765625 L 268.738281 103.765625 L 285.460938 114.917969 L 343.441406 114.917969 L 343.441406 204.15625 Z M 220.792969 204.15625 " fill-opacity="1" fill-rule="nonzero"/><path fill="#ccd1d9" d="M 31.242188 259.925781 L 31.242188 159.535156 L 79.242188 159.535156 L 95.96875 170.691406 L 153.890625 170.691406 L 153.890625 259.925781 Z M 31.242188 259.925781 " fill-opacity="1" fill-rule="nonzero"/><path fill="#656d78" d="M 81.417969 64.722656 L 92.566406 64.722656 L 92.566406 75.878906 L 81.417969 75.878906 Z M 81.417969 64.722656 " fill-opacity="1" fill-rule="nonzero"/><path fill="#fcd770" d="M 142.742188 248.773438 L 42.390625 248.773438 L 42.390625 170.691406 L 75.839844 170.691406 L 92.566406 181.847656 L 142.742188 181.847656 Z M 142.742188 248.773438 " fill-opacity="1" fill-rule="nonzero"/><path fill="#656d78" d="M 59.117188 220.886719 L 70.265625 220.886719 L 70.265625 232.039062 L 59.117188 232.039062 Z M 59.117188 220.886719 " fill-opacity="1" fill-rule="nonzero"/><path fill="#656d78" d="M 81.417969 220.886719 L 92.566406 220.886719 L 92.566406 232.039062 L 81.417969 232.039062 Z M 81.417969 220.886719 " fill-opacity="1" fill-rule="nonzero"/><path fill="#fcd770" d="M 332.292969 193 L 231.941406 193 L 231.941406 114.917969 L 265.390625 114.917969 L 282.117188 126.074219 L 332.292969 126.074219 Z M 332.292969 193 " fill-opacity="1" fill-rule="nonzero"/><path fill="#fc6e51" d="M 265.390625 114.917969 L 231.941406 114.917969 L 231.941406 148.382812 L 332.292969 148.382812 L 332.292969 126.074219 L 282.117188 126.074219 Z M 265.390625 114.917969 " fill-opacity="1" fill-rule="nonzero"/><path fill="#fc6e51" d="M 75.839844 170.691406 L 42.390625 170.691406 L 42.390625 204.15625 L 142.742188 204.15625 L 142.742188 181.847656 L 92.566406 181.847656 Z M 75.839844 170.691406 " fill-opacity="1" fill-rule="nonzero"/><path fill="#656d78" d="M 248.667969 165.113281 L 259.816406 165.113281 L 259.816406 176.269531 L 248.667969 176.269531 Z M 248.667969 165.113281 " fill-opacity="1" fill-rule="nonzero"/><path fill="#656d78" d="M 270.964844 165.113281 L 282.117188 165.113281 L 282.117188 176.269531 L 270.964844 176.269531 Z M 270.964844 165.113281 " fill-opacity="1" fill-rule="nonzero"/><path fill="#ccd1d9" d="M 220.792969 315.699219 L 220.792969 215.308594 L 268.738281 215.308594 L 285.460938 226.464844 L 343.441406 226.464844 L 343.441406 315.699219 Z M 220.792969 315.699219 " fill-opacity="1" fill-rule="nonzero"/><path fill="#fcd770" d="M 332.292969 304.542969 L 231.941406 304.542969 L 231.941406 226.464844 L 265.390625 226.464844 L 282.117188 237.617188 L 332.292969 237.617188 Z M 332.292969 304.542969 " fill-opacity="1" fill-rule="nonzero"/><path fill="#656d78" d="M 248.667969 276.660156 L 259.816406 276.660156 L 259.816406 287.8125 L 248.667969 287.8125 Z M 248.667969 276.660156 " fill-opacity="1" fill-rule="nonzero"/><path fill="#656d78" d="M 270.964844 276.660156 L 282.117188 276.660156 L 282.117188 287.8125 L 270.964844 287.8125 Z M 270.964844 276.660156 " fill-opacity="1" fill-rule="nonzero"/><path fill="#fc6e51" d="M 265.390625 226.464844 L 231.941406 226.464844 L 231.941406 259.925781 L 332.292969 259.925781 L 332.292969 237.617188 L 282.117188 237.617188 Z M 265.390625 226.464844 " fill-opacity="1" fill-rule="nonzero"/><path fill="#aab2bd" d="M 176.191406 198.578125 L 142.742188 198.578125 L 142.742188 187.421875 L 176.191406 187.421875 C 176.558594 187.421875 176.921875 187.386719 177.277344 187.316406 C 177.636719 187.246094 177.988281 187.136719 178.324219 187 C 178.664062 186.859375 178.984375 186.6875 179.289062 186.484375 C 179.59375 186.28125 179.875 186.046875 180.132812 185.789062 C 180.390625 185.53125 180.625 185.25 180.828125 184.945312 C 181.03125 184.640625 181.203125 184.320312 181.34375 183.980469 C 181.480469 183.640625 181.585938 183.292969 181.660156 182.933594 C 181.730469 182.574219 181.765625 182.210938 181.765625 181.847656 L 181.765625 137.226562 C 181.765625 136.679688 181.792969 136.132812 181.847656 135.589844 C 181.902344 135.042969 181.980469 134.5 182.085938 133.964844 C 182.195312 133.425781 182.328125 132.894531 182.488281 132.371094 C 182.644531 131.847656 182.828125 131.332031 183.039062 130.824219 C 183.25 130.320312 183.484375 129.824219 183.742188 129.339844 C 184 128.859375 184.28125 128.386719 184.585938 127.933594 C 184.890625 127.476562 185.214844 127.035156 185.5625 126.613281 C 185.910156 126.191406 186.277344 125.785156 186.664062 125.398438 C 187.050781 125.007812 187.457031 124.640625 187.882812 124.292969 C 188.304688 123.945312 188.742188 123.621094 189.199219 123.316406 C 189.65625 123.011719 190.125 122.730469 190.605469 122.472656 C 191.089844 122.214844 191.585938 121.980469 192.089844 121.769531 C 192.597656 121.558594 193.113281 121.375 193.636719 121.214844 C 194.160156 121.058594 194.691406 120.925781 195.226562 120.816406 C 195.765625 120.710938 196.308594 120.628906 196.851562 120.578125 C 197.398438 120.523438 197.945312 120.496094 198.492188 120.496094 L 231.941406 120.496094 L 231.941406 131.652344 L 198.492188 131.652344 C 198.125 131.652344 197.761719 131.6875 197.402344 131.757812 C 197.042969 131.828125 196.695312 131.933594 196.359375 132.074219 C 196.019531 132.214844 195.699219 132.386719 195.394531 132.589844 C 195.089844 132.792969 194.808594 133.023438 194.550781 133.285156 C 194.289062 133.542969 194.058594 133.824219 193.855469 134.128906 C 193.652344 134.433594 193.480469 134.753906 193.339844 135.09375 C 193.199219 135.433594 193.09375 135.78125 193.023438 136.140625 C 192.953125 136.5 192.917969 136.863281 192.917969 137.226562 L 192.917969 181.847656 C 192.917969 182.394531 192.890625 182.941406 192.835938 183.484375 C 192.78125 184.03125 192.703125 184.574219 192.59375 185.109375 C 192.488281 185.648438 192.355469 186.179688 192.195312 186.703125 C 192.039062 187.226562 191.851562 187.742188 191.644531 188.25 C 191.433594 188.753906 191.199219 189.25 190.941406 189.734375 C 190.683594 190.214844 190.402344 190.6875 190.097656 191.140625 C 189.792969 191.597656 189.46875 192.035156 189.121094 192.460938 C 188.773438 192.882812 188.40625 193.289062 188.019531 193.675781 C 187.628906 194.0625 187.226562 194.433594 186.800781 194.78125 C 186.378906 195.128906 185.9375 195.453125 185.484375 195.757812 C 185.027344 196.0625 184.558594 196.34375 184.074219 196.601562 C 183.59375 196.859375 183.097656 197.09375 182.589844 197.304688 C 182.085938 197.511719 181.570312 197.699219 181.046875 197.855469 C 180.523438 198.015625 179.992188 198.148438 179.453125 198.257812 C 178.917969 198.363281 178.375 198.441406 177.832031 198.496094 C 177.285156 198.550781 176.738281 198.578125 176.191406 198.578125 Z M 176.191406 198.578125 " fill-opacity="1" fill-rule="nonzero"/><path fill="#969faa" d="M 142.742188 187.421875 L 153.890625 187.421875 L 153.890625 198.578125 L 142.742188 198.578125 Z M 142.742188 187.421875 " fill-opacity="1" fill-rule="nonzero"/><path fill="#969faa" d="M 220.792969 120.496094 L 231.941406 120.496094 L 231.941406 131.652344 L 220.792969 131.652344 Z M 220.792969 120.496094 " fill-opacity="1" fill-rule="nonzero"/><path fill="#aab2bd" d="M 231.941406 298.96875 L 198.492188 298.96875 C 197.945312 298.96875 197.398438 298.941406 196.851562 298.886719 C 196.308594 298.832031 195.765625 298.753906 195.226562 298.644531 C 194.691406 298.539062 194.160156 298.40625 193.636719 298.246094 C 193.113281 298.089844 192.597656 297.902344 192.089844 297.695312 C 191.585938 297.484375 191.089844 297.25 190.605469 296.992188 C 190.125 296.734375 189.65625 296.453125 189.199219 296.148438 C 188.742188 295.84375 188.304688 295.515625 187.882812 295.167969 C 187.457031 294.820312 187.050781 294.453125 186.664062 294.066406 C 186.277344 293.679688 185.910156 293.273438 185.5625 292.851562 C 185.214844 292.425781 184.890625 291.988281 184.585938 291.53125 C 184.28125 291.074219 184 290.605469 183.742188 290.125 C 183.484375 289.640625 183.25 289.144531 183.039062 288.640625 C 182.828125 288.132812 182.644531 287.617188 182.488281 287.09375 C 182.328125 286.570312 182.195312 286.039062 182.085938 285.5 C 181.980469 284.960938 181.902344 284.421875 181.847656 283.875 C 181.792969 283.332031 181.765625 282.785156 181.765625 282.234375 L 181.765625 248.773438 C 181.765625 248.40625 181.730469 248.042969 181.660156 247.683594 C 181.585938 247.324219 181.480469 246.976562 181.34375 246.636719 C 181.203125 246.300781 181.03125 245.976562 180.828125 245.675781 C 180.625 245.371094 180.390625 245.085938 180.132812 244.828125 C 179.875 244.570312 179.59375 244.339844 179.289062 244.136719 C 178.984375 243.933594 178.664062 243.761719 178.324219 243.621094 C 177.988281 243.480469 177.636719 243.375 177.277344 243.300781 C 176.921875 243.230469 176.558594 243.195312 176.191406 243.195312 L 142.742188 243.195312 L 142.742188 232.039062 L 176.191406 232.039062 C 176.738281 232.039062 177.285156 232.066406 177.832031 232.121094 C 178.375 232.175781 178.917969 232.253906 179.453125 232.363281 C 179.992188 232.46875 180.523438 232.601562 181.046875 232.761719 C 181.570312 232.921875 182.085938 233.105469 182.589844 233.316406 C 183.097656 233.523438 183.59375 233.757812 184.074219 234.015625 C 184.558594 234.273438 185.027344 234.554688 185.484375 234.859375 C 185.9375 235.164062 186.378906 235.492188 186.800781 235.839844 C 187.226562 236.1875 187.628906 236.554688 188.019531 236.941406 C 188.40625 237.328125 188.773438 237.734375 189.121094 238.15625 C 189.46875 238.582031 189.792969 239.019531 190.097656 239.476562 C 190.402344 239.933594 190.683594 240.402344 190.941406 240.886719 C 191.199219 241.367188 191.433594 241.863281 191.644531 242.371094 C 191.851562 242.875 192.039062 243.390625 192.195312 243.914062 C 192.355469 244.441406 192.488281 244.972656 192.59375 245.507812 C 192.703125 246.046875 192.78125 246.585938 192.835938 247.132812 C 192.890625 247.679688 192.917969 248.222656 192.917969 248.773438 L 192.917969 282.234375 C 192.917969 282.601562 192.953125 282.964844 193.023438 283.324219 C 193.09375 283.683594 193.199219 284.03125 193.339844 284.371094 C 193.480469 284.707031 193.652344 285.03125 193.855469 285.335938 C 194.058594 285.640625 194.289062 285.921875 194.550781 286.179688 C 194.808594 286.4375 195.089844 286.667969 195.394531 286.875 C 195.699219 287.078125 196.019531 287.25 196.359375 287.386719 C 196.695312 287.527344 197.042969 287.632812 197.402344 287.707031 C 197.761719 287.777344 198.125 287.8125 198.492188 287.8125 L 231.941406 287.8125 Z M 231.941406 298.96875 " fill-opacity="1" fill-rule="nonzero"/><path fill="#969faa" d="M 220.792969 287.8125 L 231.941406 287.8125 L 231.941406 298.96875 L 220.792969 298.96875 Z M 220.792969 287.8125 " fill-opacity="1" fill-rule="nonzero"/><path fill="#969faa" d="M 142.742188 232.039062 L 153.890625 232.039062 L 153.890625 243.195312 L 142.742188 243.195312 Z M 142.742188 232.039062 " fill-opacity="1" fill-rule="nonzero"/></svg>